<?xml version="1.0" encoding="utf-8"?>
<!-- Generator: Adobe Illustrator 17.1.0, SVG Export Plug-In . SVG Version: 6.00 Build 0)  -->
<!DOCTYPE svg PUBLIC "-//W3C//DTD SVG 1.1//EN" "http://www.w3.org/Graphics/SVG/1.1/DTD/svg11.dtd">
<svg version="1.1" id="Ebene_1" xmlns="http://www.w3.org/2000/svg" xmlns:xlink="http://www.w3.org/1999/xlink" x="0px" y="0px"
	 viewBox="0 0 1530.7 1530.7" enable-background="new 0 0 1530.7 1530.7" xml:space="preserve">
<g>
	<path d="M758.6,1079.3C568,859.6,379,642,189,422.2c70.2-71.8,139.3-142,208.4-212.2c240.8,0,481.1,0,710.6,0
		c77.2,73.4,149,140.9,221.9,210.6C1138.7,640.9,949.7,859,758.6,1079.3z M231.6,421.7c177.1,204.1,351.5,404.9,527,607.4
		c176-203,350.4-403.9,527-607.4c-62.1-59.4-123.1-117.2-187.4-178.7c-224.1,0-455.7,0-677.1,0C354.7,305.6,293.7,363.4,231.6,421.7
		z"/>
	<path d="M986.5,703c-1.6-42.7-14.6-80.5-46.4-108.5c-81,0-160.9,0-245.1,0c32.4,19.4,62.1,36.7,90.7,55.6
		c18.9,12.4,37.8,25.9,52.4,43.2c51.3,58.9,24.8,142.5-50.8,162.5c-33.5,8.6-67.5,8.6-101-0.5c-23.2-6.5-43.2-17.8-59.9-36.7
		c-35.6-39.4-67.5-79.9-75.1-135c-6.5,0-11.3,0-16.7,0c-1.1,6.5-1.6,12.4-3.2,23.2c-82.1-95.6-162-188.4-243-282.4
		C337.5,373.6,385.5,324,433,274.8c49.7,0,97.7,0,148.5,0c-69.1,84.8-65.9,165.8,7.6,244.6c77.8,0,154.4,0,236,0
		c-7.6-3.8-11.9-5.9-16.2-8.6c-34.6-20-69.1-38.3-102.6-59.9c-20.5-13-34.6-32.9-38.9-57.8c-5.4-34,11.9-62.6,44.8-77.8
		c38.9-17.8,79.9-15.1,120.4-8.1c31.3,5.4,61.6,13,94.5,20c2.7-16.7,5.4-33.5,8.1-51.3c51.3,0,101.5,0,155.5,0
		c45.9,48.6,93.4,99.3,143.1,151.7c-81.5,93.4-162,185.2-242.4,277.5C989.7,704.1,988.1,703.5,986.5,703z"/>
	<path d="M838.5,879.6c-25.9,29.7-51.8,59.4-79.9,91.8c-25.4-29.7-49.7-57.8-74-85.8C737,883.3,786.1,881.2,838.5,879.6z"/>
</g>
<rect x="-188.4" y="1181.9" fill="none" width="1907" height="218.7"/>
<g enable-background="new    ">
	<path d="M660.1,1185.2l0.8,16.7h-2c-0.4-2.9-0.9-5-1.6-6.3c-1.1-2-2.5-3.5-4.3-4.5c-1.8-1-4.2-1.4-7.1-1.4h-10v54.5
		c0,4.4,0.5,7.1,1.4,8.2c1.3,1.5,3.4,2.2,6.1,2.2h2.5v1.9h-30.2v-1.9h2.5c3,0,5.2-0.9,6.4-2.7c0.8-1.1,1.2-3.7,1.2-7.7v-54.5h-8.6
		c-3.3,0-5.7,0.2-7.1,0.7c-1.8,0.7-3.4,1.9-4.7,3.8c-1.3,1.9-2.1,4.5-2.3,7.7h-2l0.8-16.7H660.1z"/>
	<path d="M714.8,1185.2h24.9v1.9h-1.4c-0.9,0-2.2,0.4-4,1.2c-1.8,0.8-3.3,2-4.8,3.5c-1.4,1.5-3.2,4-5.3,7.4l-17.2,27.1v17.9
		c0,4.4,0.5,7.1,1.5,8.2c1.3,1.5,3.4,2.2,6.3,2.2h2.3v1.9h-30.3v-1.9h2.5c3,0,5.2-0.9,6.4-2.7c0.8-1.1,1.2-3.7,1.2-7.7v-16.9
		l-19.6-29.9c-2.3-3.5-3.9-5.7-4.7-6.6c-0.8-0.9-2.5-1.9-5.1-3.2c-0.7-0.3-1.7-0.5-3-0.5v-1.9H695v1.9h-1.6c-1.6,0-3.2,0.4-4.5,1.2
		c-1.4,0.8-2.1,1.9-2.1,3.5c0,1.3,1.1,3.5,3.2,6.8l14.9,23l14-22c2.1-3.3,3.2-5.7,3.2-7.4c0-1-0.3-1.9-0.8-2.6
		c-0.5-0.8-1.2-1.4-2.2-1.8c-0.9-0.4-2.4-0.7-4.3-0.7V1185.2z"/>
	<path d="M763.4,1223.1v20.8c0,4.5,0.5,7.3,1.5,8.4c1.3,1.5,3.3,2.3,6,2.3h2.7v1.9h-30.5v-1.9h2.7c3,0,5.2-1,6.5-2.9
		c0.7-1.1,1.1-3.7,1.1-7.7v-46c0-4.5-0.5-7.3-1.4-8.4c-1.4-1.5-3.4-2.3-6.1-2.3h-2.7v-1.9h26.1c6.4,0,11.4,0.7,15.1,2
		c3.7,1.3,6.8,3.5,9.3,6.6c2.5,3.1,3.8,6.8,3.8,11.1c0,5.8-1.9,10.5-5.8,14.2s-9.3,5.5-16.3,5.5c-1.7,0-3.6-0.1-5.6-0.4
		C767.8,1224,765.6,1223.6,763.4,1223.1z M763.4,1220.1c1.9,0.4,3.5,0.6,4.9,0.8c1.4,0.2,2.7,0.3,3.7,0.3c3.6,0,6.8-1.4,9.4-4.2
		c2.6-2.8,4-6.5,4-11c0-3.1-0.6-5.9-1.9-8.6c-1.3-2.6-3-4.6-5.4-5.9c-2.3-1.3-4.9-2-7.9-2c-1.8,0-4.1,0.3-6.9,1V1220.1z"/>
	<path d="M840.5,1183.6c9.3,0,17.3,3.5,24,10.5c6.8,7,10.2,15.8,10.2,26.3c0,10.8-3.4,19.8-10.2,27s-15.1,10.7-24.8,10.7
		c-9.8,0-18.1-3.5-24.7-10.5c-6.7-7-10-16-10-27.1c0-11.3,3.9-20.6,11.6-27.7C823.2,1186.7,831.2,1183.6,840.5,1183.6z
		 M839.5,1187.4c-6.4,0-11.5,2.4-15.3,7.1c-4.8,5.9-7.2,14.5-7.2,25.9c0,11.6,2.5,20.6,7.5,26.9c3.8,4.8,8.9,7.1,15.1,7.1
		c6.7,0,12.2-2.6,16.6-7.8c4.4-5.2,6.5-13.5,6.5-24.7c0-12.2-2.4-21.3-7.2-27.3C851.6,1189.8,846.3,1187.4,839.5,1187.4z"/>
	<path d="M884.3,1198.8c2-4.8,4.6-8.5,7.7-11.1c3.1-2.6,7-3.9,11.6-3.9c5.7,0,10.1,1.9,13.1,5.6c2.3,2.8,3.5,5.7,3.5,8.9
		c0,5.2-3.3,10.5-9.8,16.1c4.4,1.7,7.7,4.2,9.9,7.4c2.2,3.2,3.4,6.9,3.4,11.2c0,6.2-2,11.5-5.9,16c-5.1,5.9-12.5,8.8-22.2,8.8
		c-4.8,0-8.1-0.6-9.8-1.8c-1.7-1.2-2.6-2.5-2.6-3.8c0-1,0.4-1.9,1.2-2.7s1.8-1.2,3-1.2c0.9,0,1.8,0.1,2.7,0.4c0.6,0.2,1.9,0.8,4,1.9
		c2.1,1.1,3.6,1.8,4.4,2c1.3,0.4,2.7,0.6,4.2,0.6c3.6,0,6.7-1.4,9.3-4.2c2.6-2.8,4-6,4-9.8c0-2.8-0.6-5.5-1.8-8.1
		c-0.9-2-1.9-3.5-3-4.5c-1.5-1.4-3.6-2.7-6.2-3.8c-2.6-1.1-5.3-1.7-8-1.7h-1.7v-1.6c2.8-0.3,5.5-1.3,8.3-3c2.8-1.6,4.8-3.6,6.1-5.9
		c1.3-2.3,1.9-4.9,1.9-7.6c0-3.6-1.1-6.5-3.4-8.8c-2.3-2.2-5.1-3.3-8.4-3.3c-5.4,0-10,2.9-13.6,8.7L884.3,1198.8z"/>
</g>
<g enable-background="new    ">
	<path d="M240.5,1314.3l0.8,16.7h-2c-0.4-2.9-0.9-5-1.6-6.3c-1.1-2-2.5-3.5-4.3-4.5c-1.8-1-4.2-1.4-7.1-1.4h-10v54.5
		c0,4.4,0.5,7.1,1.4,8.2c1.3,1.5,3.4,2.2,6.1,2.2h2.5v1.9h-30.2v-1.9h2.5c3,0,5.2-0.9,6.4-2.7c0.8-1.1,1.2-3.7,1.2-7.7v-54.5h-8.6
		c-3.3,0-5.7,0.2-7.1,0.7c-1.8,0.7-3.4,1.9-4.7,3.8c-1.3,1.9-2.1,4.5-2.3,7.7h-2l0.8-16.7H240.5z"/>
	<path d="M266.5,1318.2v28.2h15.7c4.1,0,6.8-0.6,8.1-1.8c1.8-1.6,2.8-4.4,3-8.5h1.9v24.8h-1.9c-0.5-3.5-1-5.7-1.5-6.7
		c-0.6-1.2-1.7-2.2-3.1-2.9c-1.4-0.7-3.6-1.1-6.6-1.1h-15.7v23.5c0,3.2,0.1,5.1,0.4,5.8c0.3,0.7,0.8,1.2,1.5,1.6
		c0.7,0.4,2,0.6,4,0.6h12.1c4,0,7-0.3,8.8-0.8c1.8-0.6,3.6-1.7,5.3-3.3c2.2-2.2,4.4-5.4,6.7-9.8h2.1l-6.1,17.9h-54.9v-1.9h2.5
		c1.7,0,3.3-0.4,4.8-1.2c1.1-0.6,1.9-1.4,2.3-2.5c0.4-1.1,0.6-3.4,0.6-6.9v-46.3c0-4.5-0.5-7.3-1.4-8.4c-1.3-1.4-3.4-2.1-6.3-2.1
		h-2.5v-1.9h54.9l0.8,15.6h-2c-0.7-3.8-1.6-6.3-2.4-7.7s-2.2-2.5-4-3.2c-1.4-0.5-3.9-0.8-7.4-0.8H266.5z"/>
	<path d="M353.8,1385.5l-27.5-60v47.6c0,4.4,0.5,7.1,1.4,8.2c1.3,1.5,3.3,2.2,6.1,2.2h2.5v1.9h-24.8v-1.9h2.5c3,0,5.2-0.9,6.4-2.7
		c0.8-1.1,1.2-3.7,1.2-7.7v-46.6c0-3.2-0.4-5.4-1.1-6.8c-0.5-1-1.4-1.9-2.7-2.5s-3.4-1-6.3-1v-1.9h20.2l25.9,55.8l25.4-55.8h20.2
		v1.9h-2.5c-3,0-5.2,0.9-6.5,2.7c-0.8,1.1-1.2,3.7-1.2,7.7v46.6c0,4.4,0.5,7.1,1.5,8.2c1.3,1.5,3.3,2.2,6.1,2.2h2.5v1.9h-30.3v-1.9
		h2.5c3,0,5.2-0.9,6.4-2.7c0.8-1.1,1.2-3.7,1.2-7.7v-47.6l-27.5,60H353.8z"/>
	<path d="M427.6,1352.2v20.8c0,4.5,0.5,7.3,1.5,8.4c1.3,1.5,3.3,2.3,6,2.3h2.7v1.9h-30.5v-1.9h2.7c3,0,5.2-1,6.5-2.9
		c0.7-1.1,1.1-3.7,1.1-7.7v-46c0-4.5-0.5-7.3-1.4-8.4c-1.4-1.5-3.4-2.3-6.1-2.3h-2.7v-1.9h26.1c6.4,0,11.4,0.7,15.1,2
		c3.7,1.3,6.8,3.5,9.3,6.6c2.5,3.1,3.8,6.8,3.8,11.1c0,5.8-1.9,10.5-5.8,14.2s-9.3,5.5-16.3,5.5c-1.7,0-3.6-0.1-5.6-0.4
		C432,1353,429.8,1352.7,427.6,1352.2z M427.6,1349.2c1.9,0.4,3.5,0.6,4.9,0.8c1.4,0.2,2.7,0.3,3.7,0.3c3.6,0,6.8-1.4,9.4-4.2
		c2.6-2.8,4-6.5,4-11c0-3.1-0.6-5.9-1.9-8.6c-1.3-2.6-3-4.6-5.4-5.9c-2.3-1.3-4.9-2-7.9-2c-1.8,0-4.1,0.3-6.9,1V1349.2z"/>
	<path d="M527.1,1365.8l1.7,0.4l-6.1,19.3h-55.2v-1.9h2.7c3,0,5.2-1,6.5-2.9c0.7-1.1,1.1-3.7,1.1-7.8v-46c0-4.5-0.5-7.2-1.5-8.4
		c-1.4-1.5-3.4-2.3-6.1-2.3h-2.7v-1.9h32.3v1.9c-3.8,0-6.4,0.3-8,1.1c-1.5,0.7-2.6,1.7-3.1,2.8c-0.6,1.1-0.8,3.8-0.8,8v44.8
		c0,2.9,0.3,4.9,0.8,6c0.4,0.7,1.1,1.3,1.9,1.6c0.9,0.4,3.6,0.5,8.2,0.5h5.2c5.5,0,9.3-0.4,11.5-1.2c2.2-0.8,4.2-2.2,6-4.3
		C523.4,1373.5,525.2,1370.2,527.1,1365.8z"/>
</g>
<g enable-background="new    ">
	<path d="M580.1,1361.7h-27.6l-4.8,11.2c-1.2,2.8-1.8,4.8-1.8,6.2c0,1.1,0.5,2,1.6,2.9c1,0.8,3.3,1.4,6.7,1.6v1.9h-22.4v-1.9
		c3-0.5,4.9-1.2,5.8-2.1c1.8-1.7,3.8-5.1,5.9-10.2l25.1-58.7h1.8l24.8,59.3c2,4.8,3.8,7.9,5.4,9.3c1.6,1.4,3.9,2.2,6.8,2.4v1.9
		h-28.1v-1.9c2.8-0.1,4.8-0.6,5.8-1.4c1-0.8,1.5-1.8,1.5-2.9c0-1.5-0.7-4-2.1-7.3L580.1,1361.7z M578.6,1357.8l-12.1-28.8
		l-12.4,28.8H578.6z"/>
</g>
<g enable-background="new    ">
	<path d="M659,1314.3l0.8,16.7h-2c-0.4-2.9-0.9-5-1.6-6.3c-1.1-2-2.5-3.5-4.3-4.5c-1.8-1-4.2-1.4-7.1-1.4h-10v54.5
		c0,4.4,0.5,7.1,1.4,8.2c1.3,1.5,3.4,2.2,6.1,2.2h2.5v1.9h-30.2v-1.9h2.5c3,0,5.2-0.9,6.4-2.7c0.8-1.1,1.2-3.7,1.2-7.7v-54.5H616
		c-3.3,0-5.7,0.2-7.1,0.7c-1.8,0.7-3.4,1.9-4.7,3.8c-1.3,1.9-2.1,4.5-2.3,7.7h-2l0.8-16.7H659z"/>
	<path d="M685,1318.2v28.2h15.7c4.1,0,6.8-0.6,8.1-1.8c1.8-1.6,2.8-4.4,3-8.5h1.9v24.8h-1.9c-0.5-3.5-1-5.7-1.5-6.7
		c-0.6-1.2-1.7-2.2-3.1-2.9c-1.4-0.7-3.6-1.1-6.6-1.1H685v23.5c0,3.2,0.1,5.1,0.4,5.8c0.3,0.7,0.8,1.2,1.5,1.6c0.7,0.4,2,0.6,4,0.6
		h12.1c4,0,7-0.3,8.8-0.8c1.8-0.6,3.6-1.7,5.3-3.3c2.2-2.2,4.4-5.4,6.7-9.8h2.1l-6.1,17.9h-54.9v-1.9h2.5c1.7,0,3.3-0.4,4.8-1.2
		c1.1-0.6,1.9-1.4,2.3-2.5c0.4-1.1,0.6-3.4,0.6-6.9v-46.3c0-4.5-0.5-7.3-1.4-8.4c-1.3-1.4-3.4-2.1-6.3-2.1h-2.5v-1.9h54.9l0.8,15.6
		h-2c-0.7-3.8-1.6-6.3-2.4-7.7s-2.2-2.5-4-3.2c-1.4-0.5-3.9-0.8-7.4-0.8H685z"/>
	<path d="M777.9,1349.2c4.9,1.1,8.6,2.7,11.1,5c3.4,3.2,5.1,7.2,5.1,11.8c0,3.5-1.1,6.9-3.4,10.2c-2.2,3.2-5.3,5.6-9.2,7.1
		s-9.9,2.2-17.9,2.2H730v-1.9h2.7c3,0,5.1-0.9,6.4-2.8c0.8-1.2,1.2-3.8,1.2-7.8v-46c0-4.4-0.5-7.2-1.5-8.4c-1.4-1.5-3.4-2.3-6.1-2.3
		H730v-1.9h30.8c5.7,0,10.4,0.4,13.8,1.3c5.3,1.3,9.3,3.5,12,6.7c2.8,3.2,4.2,6.9,4.2,11.1c0,3.6-1.1,6.8-3.3,9.6
		S782.2,1347.8,777.9,1349.2z M750.4,1346.3c1.3,0.2,2.8,0.4,4.4,0.6c1.7,0.1,3.5,0.2,5.5,0.2c5.1,0,9-0.6,11.5-1.7s4.5-2.8,5.9-5.1
		c1.4-2.3,2-4.8,2-7.5c0-4.2-1.7-7.7-5.1-10.7c-3.4-2.9-8.4-4.4-14.9-4.4c-3.5,0-6.7,0.4-9.5,1.2V1346.3z M750.4,1380.4
		c4.1,0.9,8.1,1.4,12,1.4c6.3,0,11.2-1.4,14.5-4.3c3.3-2.9,5-6.4,5-10.6c0-2.8-0.8-5.4-2.3-8c-1.5-2.6-4-4.6-7.4-6
		s-7.6-2.2-12.6-2.2c-2.2,0-4,0-5.6,0.1c-1.5,0.1-2.8,0.2-3.7,0.4V1380.4z"/>
	<path d="M839.4,1312.6c9.3,0,17.3,3.5,24,10.5c6.8,7,10.2,15.8,10.2,26.3c0,10.8-3.4,19.8-10.2,27s-15.1,10.7-24.8,10.7
		c-9.8,0-18.1-3.5-24.7-10.5c-6.7-7-10-16-10-27.1c0-11.3,3.9-20.6,11.6-27.7C822.1,1315.7,830.1,1312.6,839.4,1312.6z
		 M838.4,1316.5c-6.4,0-11.5,2.4-15.3,7.1c-4.8,5.9-7.2,14.5-7.2,25.9c0,11.6,2.5,20.6,7.5,26.9c3.8,4.8,8.9,7.1,15.1,7.1
		c6.7,0,12.2-2.6,16.6-7.8c4.4-5.2,6.5-13.5,6.5-24.7c0-12.2-2.4-21.3-7.2-27.3C850.5,1318.9,845.2,1316.5,838.4,1316.5z"/>
	<path d="M917.1,1312.6c9.3,0,17.3,3.5,24,10.5c6.8,7,10.2,15.8,10.2,26.3c0,10.8-3.4,19.8-10.2,27s-15.1,10.7-24.8,10.7
		c-9.8,0-18.1-3.5-24.7-10.5c-6.7-7-10-16-10-27.1c0-11.3,3.9-20.6,11.6-27.7C899.8,1315.7,907.8,1312.6,917.1,1312.6z
		 M916.1,1316.5c-6.4,0-11.5,2.4-15.3,7.1c-4.8,5.9-7.2,14.5-7.2,25.9c0,11.6,2.5,20.6,7.5,26.9c3.8,4.8,8.9,7.1,15.1,7.1
		c6.7,0,12.2-2.6,16.6-7.8c4.4-5.2,6.5-13.5,6.5-24.7c0-12.2-2.4-21.3-7.2-27.3C928.2,1318.9,922.9,1316.5,916.1,1316.5z"/>
	<path d="M1017.8,1314.3l0.8,16.7h-2c-0.4-2.9-0.9-5-1.6-6.3c-1.1-2-2.5-3.5-4.3-4.5c-1.8-1-4.2-1.4-7.1-1.4h-10v54.5
		c0,4.4,0.5,7.1,1.4,8.2c1.3,1.5,3.4,2.2,6.1,2.2h2.5v1.9h-30.2v-1.9h2.5c3,0,5.2-0.9,6.4-2.7c0.8-1.1,1.2-3.7,1.2-7.7v-54.5h-8.6
		c-3.3,0-5.7,0.2-7.1,0.7c-1.8,0.7-3.4,1.9-4.7,3.8c-1.3,1.9-2.1,4.5-2.3,7.7h-2l0.8-16.7H1017.8z"/>
	<path d="M1070.6,1312.6v24.7h-1.9c-0.6-4.7-1.8-8.5-3.4-11.3c-1.6-2.8-4-5-7-6.7c-3-1.6-6.1-2.5-9.4-2.5c-3.6,0-6.7,1.1-9,3.3
		c-2.4,2.2-3.6,4.8-3.6,7.6c0,2.2,0.8,4.2,2.3,5.9c2.2,2.6,7.3,6.1,15.5,10.5c6.7,3.6,11.2,6.3,13.6,8.2c2.4,1.9,4.3,4.2,5.6,6.8
		c1.3,2.6,2,5.3,2,8.1c0,5.4-2.1,10-6.3,14c-4.2,3.9-9.6,5.9-16.2,5.9c-2.1,0-4-0.2-5.8-0.5c-1.1-0.2-3.3-0.8-6.8-1.9
		c-3.4-1.1-5.6-1.7-6.5-1.7c-0.9,0-1.6,0.3-2.1,0.8c-0.5,0.5-0.9,1.6-1.1,3.3h-1.9v-24.4h1.9c0.9,5.1,2.1,8.9,3.7,11.5
		c1.5,2.5,3.9,4.7,7.1,6.3c3.2,1.7,6.6,2.5,10.4,2.5c4.4,0,7.8-1.2,10.4-3.5c2.5-2.3,3.8-5,3.8-8.2c0-1.8-0.5-3.5-1.4-5.3
		c-1-1.8-2.5-3.5-4.5-5c-1.4-1.1-5.1-3.3-11.2-6.7c-6.1-3.4-10.4-6.1-13-8.2c-2.6-2-4.5-4.3-5.9-6.7c-1.3-2.5-2-5.2-2-8.1
		c0-5.1,2-9.5,5.9-13.2c3.9-3.7,8.9-5.5,15-5.5c3.8,0,7.8,0.9,12,2.8c2,0.9,3.3,1.3,4.2,1.3c0.9,0,1.7-0.3,2.2-0.8s1-1.6,1.4-3.3
		H1070.6z"/>
	<path d="M1143.4,1314.3l0.8,16.7h-2c-0.4-2.9-0.9-5-1.6-6.3c-1.1-2-2.5-3.5-4.3-4.5c-1.8-1-4.2-1.4-7.1-1.4h-10v54.5
		c0,4.4,0.5,7.1,1.4,8.2c1.3,1.5,3.4,2.2,6.1,2.2h2.5v1.9h-30.2v-1.9h2.5c3,0,5.2-0.9,6.4-2.7c0.8-1.1,1.2-3.7,1.2-7.7v-54.5h-8.6
		c-3.3,0-5.7,0.2-7.1,0.7c-1.8,0.7-3.4,1.9-4.7,3.8c-1.3,1.9-2.1,4.5-2.3,7.7h-2l0.8-16.7H1143.4z"/>
	<path d="M1219.6,1385.5h-19l-24.1-33.3c-1.8,0.1-3.2,0.1-4.4,0.1c-0.5,0-0.9,0-1.5,0s-1.1,0-1.6-0.1v20.7c0,4.5,0.5,7.3,1.5,8.4
		c1.3,1.5,3.3,2.3,6,2.3h2.8v1.9h-30.5v-1.9h2.7c3,0,5.2-1,6.5-2.9c0.7-1.1,1.1-3.7,1.1-7.7v-46c0-4.5-0.5-7.3-1.5-8.4
		c-1.4-1.5-3.4-2.3-6.1-2.3h-2.7v-1.9h26c7.6,0,13.1,0.6,16.7,1.7c3.6,1.1,6.6,3.1,9.1,6.1c2.5,3,3.8,6.5,3.8,10.6
		c0,4.4-1.4,8.2-4.3,11.4c-2.9,3.2-7.3,5.5-13.3,6.8l14.7,20.4c3.4,4.7,6.3,7.8,8.7,9.4c2.4,1.5,5.6,2.5,9.5,2.9V1385.5z
		 M1169,1348.9c0.7,0,1.2,0,1.7,0c0.5,0,0.9,0,1.2,0c6.8,0,11.9-1.5,15.4-4.4c3.5-2.9,5.2-6.7,5.2-11.2c0-4.4-1.4-8.1-4.2-10.9
		c-2.8-2.8-6.5-4.2-11.1-4.2c-2,0-4.8,0.3-8.3,1V1348.9z"/>
	<path d="M1267.9,1361.7h-27.6l-4.8,11.2c-1.2,2.8-1.8,4.8-1.8,6.2c0,1.1,0.5,2,1.6,2.9c1,0.8,3.3,1.4,6.7,1.6v1.9h-22.4v-1.9
		c3-0.5,4.9-1.2,5.8-2.1c1.8-1.7,3.8-5.1,5.9-10.2l25.1-58.7h1.8l24.8,59.3c2,4.8,3.8,7.9,5.4,9.3c1.6,1.4,3.9,2.2,6.8,2.4v1.9
		h-28.1v-1.9c2.8-0.1,4.8-0.6,5.8-1.4c1-0.8,1.5-1.8,1.5-2.9c0-1.5-0.7-4-2.1-7.3L1267.9,1361.7z M1266.4,1357.8l-12.1-28.8
		l-12.4,28.8H1266.4z"/>
</g>
<g enable-background="new    ">
	<path d="M1318.5,1352.2v20.8c0,4.5,0.5,7.3,1.5,8.4c1.3,1.5,3.3,2.3,6,2.3h2.7v1.9h-30.5v-1.9h2.7c3,0,5.2-1,6.5-2.9
		c0.7-1.1,1.1-3.7,1.1-7.7v-46c0-4.5-0.5-7.3-1.4-8.4c-1.4-1.5-3.4-2.3-6.1-2.3h-2.7v-1.9h26.1c6.4,0,11.4,0.7,15.1,2
		c3.7,1.3,6.8,3.5,9.3,6.6c2.5,3.1,3.8,6.8,3.8,11.1c0,5.8-1.9,10.5-5.8,14.2c-3.8,3.6-9.3,5.5-16.3,5.5c-1.7,0-3.6-0.1-5.6-0.4
		S1320.8,1352.7,1318.5,1352.2z M1318.5,1349.2c1.9,0.4,3.5,0.6,4.9,0.8c1.4,0.2,2.7,0.3,3.7,0.3c3.6,0,6.8-1.4,9.4-4.2
		c2.6-2.8,4-6.5,4-11c0-3.1-0.6-5.9-1.9-8.6c-1.3-2.6-3-4.6-5.4-5.9c-2.3-1.3-4.9-2-7.9-2c-1.8,0-4.1,0.3-6.9,1V1349.2z"/>
</g>
</svg>
