<?xml version="1.0" encoding="utf-8"?>
<!-- Generator: Adobe Illustrator 17.1.0, SVG Export Plug-In . SVG Version: 6.00 Build 0)  -->
<!DOCTYPE svg PUBLIC "-//W3C//DTD SVG 1.1//EN" "http://www.w3.org/Graphics/SVG/1.1/DTD/svg11.dtd">
<svg version="1.1" id="Ebene_1" xmlns="http://www.w3.org/2000/svg" xmlns:xlink="http://www.w3.org/1999/xlink" x="0px" y="0px"
	 viewBox="0 0 283.5 283.5" enable-background="new 0 0 283.5 283.5" xml:space="preserve">
<g>
	<path d="M141.6,238c-41.1-47.4-81.8-94.3-122.8-141.6c15.2-15.4,30-30.6,44.9-45.7c51.9,0,103.6,0,153.1,0
		C233.5,66.4,248.9,81,264.7,96C223.4,143.5,182.8,190.4,141.6,238z M28,96.2c38.1,44,75.7,87.3,113.5,130.9
		c37.9-43.7,75.5-87.1,113.5-130.9c-13.4-12.8-26.5-25.2-40.4-38.5c-48.3,0-98.1,0-145.9,0C54.6,71.2,41.4,83.6,28,96.2z"/>
	<path d="M190.6,156.9c-0.4-9.2-3.1-17.3-10-23.4c-17.5,0-34.7,0-52.8,0c7,4.2,13.4,7.9,19.6,12c4,2.7,8.1,5.6,11.3,9.3
		c11.1,12.7,5.3,30.7-10.9,35c-7.2,1.9-14.5,1.9-21.7-0.1c-5-1.4-9.3-3.9-12.9-7.9c-7.7-8.4-14.6-17.2-16.1-29.1c-1.4,0-2.5,0-3.7,0
		c-0.2,1.4-0.4,2.7-0.7,5c-17.7-20.6-34.9-40.6-52.4-60.8c10.6-11,21-21.7,31.2-32.3c10.7,0,21,0,32,0
		c-14.9,18.2-14.2,35.7,1.6,52.7c16.7,0,33.3,0,50.9,0c-1.6-0.8-2.6-1.3-3.5-1.8c-7.4-4.3-14.9-8.3-22.1-13
		c-4.4-2.8-7.5-7.1-8.3-12.5c-1.2-7.4,2.5-13.6,9.7-16.8c8.4-3.8,17.2-3.2,25.9-1.7c6.7,1.1,13.3,2.8,20.4,4.4
		c0.6-3.6,1.1-7.2,1.7-11.1c11.1,0,21.9,0,33.5,0c9.9,10.5,20.2,21.4,30.8,32.7c-17.6,20.1-34.9,40-52.3,59.8
		C191.4,157.1,191,157,190.6,156.9z"/>
	<path d="M158.8,194.9c-5.5,6.3-11.2,12.8-17.2,19.7c-5.5-6.4-10.7-12.4-15.9-18.5C136.9,195.7,147.6,195.3,158.8,194.9z"/>
</g>
</svg>
