<?xml version="1.0" encoding="utf-8"?>
<!-- Generator: Adobe Illustrator 19.0.0, SVG Export Plug-In . SVG Version: 6.00 Build 0)  -->
<svg version="1.1" id="Ebene_1" xmlns="http://www.w3.org/2000/svg" xmlns:xlink="http://www.w3.org/1999/xlink" x="0px" y="0px"
	 viewBox="0 0 200 80" enable-background="new 0 0 200 80" xml:space="preserve">
<g id="XMLID_75_">
	<polygon id="XMLID_76_" fill="#AD8C59" points="64.3,76.9 -0.2,76.9 -0.2,9.7 87.1,9.7 87.1,12 2,12 2,74.7 64.3,74.7 	"/>
</g>
<g id="XMLID_73_">
	<polygon id="XMLID_74_" fill="#AD8C59" points="200,76.9 135.3,76.9 135.3,74.7 197.8,74.7 197.8,12 112.5,12 112.5,9.7 200,9.7 	
		"/>
</g>
<g id="XMLID_67_">
	<g id="XMLID_68_">
		<g id="XMLID_69_">
			<path id="XMLID_70_" fill="#AD8C59" d="M100,18.5c-1.4,0-7.8-6.8-7.8-12.4c0-2.9,2.4-6.1,7.8-6.1c5.3,0,7.8,3.2,7.8,6.1
				C107.8,11.7,101.4,18.5,100,18.5z M100,1.1c-4.6,0-6.7,2.6-6.7,5c0,5,5.5,10.8,6.7,11.4c1.2-0.5,6.7-6.4,6.7-11.4
				C106.7,3.7,104.6,1.1,100,1.1z"/>
		</g>
	</g>
</g>
<g id="XMLID_42_">
	<path id="XMLID_65_" fill="#AD8C59" d="M37.7,45.2l2.6-12.5h3.2V54h-2.9l0.3-14l-2.1,10.1h-2.2L34.4,40l0.3,14h-2.9V32.6H35
		L37.7,45.2z"/>
	<path id="XMLID_62_" fill="#AD8C59" d="M50.3,54h-2.9V36.3c0-2.4,1.1-3.7,3.4-3.7H53c2.3,0,3.4,1.2,3.4,3.7V54h-2.9v-7.8h-3.3V54z
		 M53.6,43.6v-7.1c0-0.8-0.4-1.2-1.2-1.2h-0.8c-0.8,0-1.2,0.4-1.2,1.2v7.1H53.6z"/>
	<path id="XMLID_60_" fill="#AD8C59" d="M66.4,43V32.6h2.9V54h-2.9v-4.3L63.3,40v14h-2.9V32.6h2.9L66.4,43z"/>
	<path id="XMLID_58_" fill="#AD8C59" d="M82.7,32.6v17.3c0,2.7-1.2,4-3.4,4h-2.4c-2.3,0-3.4-1.4-3.4-4.1V32.6h2.9V50
		c0,0.9,0.4,1.4,1.2,1.4h1.2c0.8,0,1.2-0.5,1.2-1.4V32.6H82.7z"/>
	<path id="XMLID_56_" fill="#AD8C59" d="M86.8,54V32.6h7.1v2.6h-4.2v6.5h3.7v2.6h-3.7v7.1h4.2V54H86.8z"/>
	<path id="XMLID_54_" fill="#AD8C59" d="M104.2,54h-6.8V32.6h2.9v18.8h3.9V54z"/>
	<path id="XMLID_52_" fill="#AD8C59" d="M113.6,54V32.6h7.1v2.6h-4.2v6.5h3.7v2.6h-3.7v7.1h4.2V54H113.6z"/>
	<path id="XMLID_50_" fill="#AD8C59" d="M128.8,35.2V54h-2.9V35.2h-2.7v-2.6h8.3v2.6H128.8z"/>
	<path id="XMLID_48_" fill="#AD8C59" d="M139.2,35.2V54h-2.9V35.2h-2.7v-2.6h8.3v2.6H139.2z"/>
	<path id="XMLID_46_" fill="#AD8C59" d="M145,54V32.6h7.1v2.6h-4.2v6.5h3.7v2.6h-3.7v7.1h4.2V54H145z"/>
	<path id="XMLID_43_" fill="#AD8C59" d="M155.6,32.6h5.6c2.2,0,3.3,1.2,3.3,3.7v5.3c0,1.9-0.6,3-1.7,3.5l2,8.9h-2.7l-1.9-8.6h-1.7
		V54h-2.9V32.6z M158.5,42.9h1.9c0.9,0,1.3-0.5,1.3-1.5v-4.6c0-1-0.4-1.5-1.3-1.5h-1.9V42.9z"/>
</g>
<g id="XMLID_5_">
	<path id="XMLID_40_" fill="#AD8C59" d="M69.2,73v-0.5c0-0.2-0.1-0.3-0.3-0.3h-0.1c-0.2,0-0.3,0.1-0.3,0.3v0.9c0,0.1,0,0.2,0.1,0.2
		c0,0,0.1,0.1,0.2,0.1l0.7,0.4c0.1,0.1,0.3,0.2,0.3,0.2c0.1,0,0.1,0.1,0.1,0.2c0,0.1,0.1,0.2,0.1,0.4V76c0,0.6-0.3,0.9-0.9,0.9h-0.4
		c-0.6,0-0.9-0.3-0.9-1v-0.3h0.7V76c0,0.2,0.1,0.3,0.3,0.3h0.1c0.2,0,0.3-0.1,0.3-0.3v-0.9c0-0.1,0-0.2-0.1-0.2c0,0-0.1-0.1-0.2-0.1
		l-0.7-0.4c-0.1-0.1-0.3-0.1-0.3-0.2c-0.1-0.1-0.1-0.1-0.1-0.2c0-0.1,0-0.2,0-0.3v-1.1c0-0.6,0.3-0.9,0.9-0.9h0.4
		c0.6,0,0.9,0.3,0.9,0.9V73H69.2z"/>
	<path id="XMLID_38_" fill="#AD8C59" d="M71.9,76.9v-5.3h0.7v5.3H71.9z"/>
	<path id="XMLID_36_" fill="#AD8C59" d="M76.1,74.2v-2.6h0.7v5.3h-0.7v-1.1l-0.8-2.4v3.5h-0.7v-5.3h0.7L76.1,74.2z"/>
	<path id="XMLID_34_" fill="#AD8C59" d="M79.9,75v-0.6H81v2.6h-1.4c-0.5,0-0.8-0.3-0.8-0.9v-3.5c0-0.6,0.3-0.9,0.8-0.9h0.5
		c0.6,0,0.9,0.3,0.9,0.9v0.6h-0.7v-0.5c0-0.3-0.1-0.4-0.3-0.4h-0.2c-0.2,0-0.3,0.1-0.3,0.4v3.3c0,0.3,0.1,0.4,0.3,0.4h0.5V75H79.9z"
		/>
	<path id="XMLID_32_" fill="#AD8C59" d="M82.9,76.9v-5.3h1.8v0.6h-1.1v1.6h0.9v0.6h-0.9v1.8h1.1v0.6H82.9z"/>
	<path id="XMLID_29_" fill="#AD8C59" d="M86.5,71.6h1.4c0.5,0,0.8,0.3,0.8,0.9v1.3c0,0.5-0.1,0.8-0.4,0.9l0.5,2.2h-0.7l-0.5-2.2
		h-0.4v2.2h-0.7V71.6z M87.2,74.2h0.5c0.2,0,0.3-0.1,0.3-0.4v-1.2c0-0.3-0.1-0.4-0.3-0.4h-0.5V74.2z"/>
	<path id="XMLID_27_" fill="#AD8C59" d="M94.5,73v-0.5c0-0.2-0.1-0.3-0.3-0.3h-0.1c-0.2,0-0.3,0.1-0.3,0.3v0.9c0,0.1,0,0.2,0.1,0.2
		c0,0,0.1,0.1,0.2,0.1l0.7,0.4c0.1,0.1,0.3,0.2,0.3,0.2c0.1,0,0.1,0.1,0.1,0.2c0,0.1,0.1,0.2,0.1,0.4V76c0,0.6-0.3,0.9-0.9,0.9H94
		c-0.6,0-0.9-0.3-0.9-1v-0.3h0.7V76c0,0.2,0.1,0.3,0.3,0.3h0.1c0.2,0,0.3-0.1,0.3-0.3v-0.9c0-0.1,0-0.2-0.1-0.2c0,0-0.1-0.1-0.2-0.1
		l-0.7-0.4c-0.1-0.1-0.3-0.1-0.3-0.2c-0.1-0.1-0.1-0.1-0.1-0.2c0-0.1,0-0.2,0-0.3v-1.1c0-0.6,0.3-0.9,0.9-0.9h0.4
		c0.6,0,0.9,0.3,0.9,0.9V73H94.5z"/>
	<path id="XMLID_24_" fill="#AD8C59" d="M98,76.9c-0.6,0-0.9-0.3-0.9-0.9v-3.5c0-0.6,0.3-0.9,0.9-0.9h0.7c0.6,0,0.9,0.3,0.9,0.9V76
		c0,0.6-0.3,0.9-0.9,0.9H98z M98.2,76.3h0.4c0.2,0,0.3-0.1,0.3-0.3v-3.4c0-0.2-0.1-0.3-0.3-0.3h-0.3c-0.2,0-0.3,0.1-0.3,0.3V76
		C97.9,76.2,98,76.3,98.2,76.3z"/>
	<path id="XMLID_22_" fill="#AD8C59" d="M103,74.2v-2.6h0.7v5.3H103v-1.1l-0.8-2.4v3.5h-0.7v-5.3h0.7L103,74.2z"/>
	<path id="XMLID_20_" fill="#AD8C59" d="M106.8,75v-0.6h1.1v2.6h-1.4c-0.5,0-0.8-0.3-0.8-0.9v-3.5c0-0.6,0.3-0.9,0.8-0.9h0.5
		c0.6,0,0.9,0.3,0.9,0.9v0.6h-0.7v-0.5c0-0.3-0.1-0.4-0.3-0.4h-0.2c-0.2,0-0.3,0.1-0.3,0.4v3.3c0,0.3,0.1,0.4,0.3,0.4h0.5V75H106.8z
		"/>
	<path id="XMLID_18_" fill="#AD8C59" d="M113.5,71.6l-0.8,5.3H112l-0.4-3.1l-0.4,3.1h-0.8l-0.8-5.3h0.7l0.5,4l0.5-4h0.6l0.5,4l0.5-4
		H113.5z"/>
	<path id="XMLID_15_" fill="#AD8C59" d="M115.3,71.6h1.4c0.5,0,0.8,0.3,0.8,0.9v1.3c0,0.5-0.1,0.8-0.4,0.9l0.5,2.2h-0.7l-0.5-2.2
		H116v2.2h-0.7V71.6z M116,74.2h0.5c0.2,0,0.3-0.1,0.3-0.4v-1.2c0-0.3-0.1-0.4-0.3-0.4H116V74.2z"/>
	<path id="XMLID_13_" fill="#AD8C59" d="M119.4,76.9v-5.3h0.7v5.3H119.4z"/>
	<path id="XMLID_11_" fill="#AD8C59" d="M123.3,72.2v4.7h-0.7v-4.7h-0.7v-0.6h2.1v0.6H123.3z"/>
	<path id="XMLID_9_" fill="#AD8C59" d="M125.7,76.9v-5.3h1.8v0.6h-1.1v1.6h0.9v0.6h-0.9v1.8h1.1v0.6H125.7z"/>
	<path id="XMLID_6_" fill="#AD8C59" d="M129.3,71.6h1.4c0.5,0,0.8,0.3,0.8,0.9v1.3c0,0.5-0.1,0.8-0.4,0.9l0.5,2.2h-0.7l-0.5-2.2H130
		v2.2h-0.7V71.6z M130,74.2h0.5c0.2,0,0.3-0.1,0.3-0.4v-1.2c0-0.3-0.1-0.4-0.3-0.4H130V74.2z"/>
</g>
<g id="XMLID_2_">
	<path id="XMLID_3_" fill="#AD8C59" d="M100.2,9l0.9-4.2h1.1v7.1h-1l0.1-4.7l-0.7,3.4h-0.7l-0.7-3.4l0.1,4.7h-1V4.8h1.1L100.2,9z"/>
</g>
</svg>
