<?xml version="1.0" encoding="utf-8"?>
<!-- Generator: Adobe Illustrator 17.1.0, SVG Export Plug-In . SVG Version: 6.00 Build 0)  -->
<!DOCTYPE svg PUBLIC "-//W3C//DTD SVG 1.1//EN" "http://www.w3.org/Graphics/SVG/1.1/DTD/svg11.dtd">
<svg version="1.1" id="Ebene_1" xmlns="http://www.w3.org/2000/svg" xmlns:xlink="http://www.w3.org/1999/xlink" x="0px" y="0px"
	 viewBox="0 565.7 1402 400" enable-background="new 0 565.7 1402 400" xml:space="preserve">
<g>
	<path d="M257.2,957.9C171.2,858.8,85.7,760.7,0,661.6c31.6-32.3,62.9-64.2,94.2-95.9c108.6,0,217.1,0,320.5,0
		c34.9,32.9,67.2,63.6,100.1,94.9C428.7,760.3,343.3,858.5,257.2,957.9z M19.2,661.2c79.9,92.3,158.5,182.9,237.7,274.2
		c79.6-91.6,158.1-182.3,237.7-274.2c-28-26.7-55.4-52.8-84.8-80.5c-101.1,0-205.4,0-305.5,0C75,608.7,47.3,634.8,19.2,661.2z"/>
	<path d="M359.9,788.4c-1-19.2-6.5-36.2-20.9-48.9c-36.5,0-72.7,0-110.5,0c14.7,8.8,28,16.3,41.1,25.1c8.5,5.5,17,11.7,23.8,19.2
		c23.1,26.7,11.1,64.2-22.8,73.4c-15,3.9-30.3,3.9-45.3-0.3c-10.4-2.9-19.2-8.2-27.1-16.6c-16-17.6-30.6-35.9-33.9-61
		c-2.9,0-5.2,0-7.8,0c-0.3,2.9-1,5.5-1.6,10.4C117.4,747,81.5,704.9,45,662.5c22.2-22.8,44-45.3,65.5-67.5c22.2,0,44,0,66.8,0
		c-31.3,38.1-29.7,74.7,3.3,110.2c34.9,0,69.8,0,106.6,0c-3.3-1.6-5.5-2.6-7.5-3.9c-15.3-8.8-31.3-17.3-46.3-27.1
		c-9.1-5.9-15.6-15-17.3-26.1c-2.3-15.3,5.2-28.4,20.2-35.2c17.6-8.2,35.9-6.8,54.4-3.6c14,2.3,28,5.9,42.7,9.1
		c1.3-7.5,2.3-15,3.6-23.1c23.1,0,46,0,70.1,0c20.5,21.8,42.4,45,64.6,68.5c-36.8,42.1-73,83.8-109.5,125.2
		C361.6,788.7,360.6,788.4,359.9,788.4z"/>
	<path d="M293.1,867.9c-11.7,13.4-23.5,26.7-36.2,41.4c-11.4-13.4-22.5-26.1-33.3-38.8C247.1,869.6,269.6,868.6,293.1,867.9z"/>
</g>
<rect x="612.9" y="690.6" fill="none" width="866.3" height="159.8"/>
<g enable-background="new    ">
	<path d="M654.3,693l0.5,11.1h-1.3c-0.3-2-0.6-3.4-1.1-4.2c-0.7-1.4-1.7-2.4-2.9-3c-1.2-0.6-2.8-1-4.7-1h-6.7v36.3
		c0,2.9,0.3,4.7,0.9,5.5c0.9,1,2.3,1.5,4.1,1.5h1.6v1.3h-20.1v-1.3h1.7c2,0,3.4-0.6,4.3-1.8c0.5-0.7,0.8-2.5,0.8-5.1v-36.3h-5.7
		c-2.2,0-3.8,0.2-4.7,0.5c-1.2,0.4-2.3,1.3-3.1,2.6c-0.9,1.3-1.4,3-1.5,5.1H615l0.6-11.1H654.3z"/>
	<path d="M690.8,693h16.6v1.3h-0.9c-0.6,0-1.5,0.3-2.7,0.8c-1.2,0.5-2.2,1.3-3.2,2.3c-1,1-2.1,2.6-3.5,4.9l-11.5,18v11.9
		c0,2.9,0.3,4.7,1,5.5c0.9,1,2.3,1.5,4.2,1.5h1.5v1.3h-20.2v-1.3h1.7c2,0,3.4-0.6,4.3-1.8c0.5-0.7,0.8-2.5,0.8-5.1V721l-13-19.9
		c-1.5-2.3-2.6-3.8-3.1-4.4c-0.5-0.6-1.7-1.3-3.4-2.1c-0.5-0.2-1.1-0.4-2-0.4V693h20.3v1.3h-1.1c-1.1,0-2.1,0.3-3,0.8
		c-0.9,0.5-1.4,1.3-1.4,2.3c0,0.8,0.7,2.4,2.1,4.6l9.9,15.3l9.3-14.6c1.4-2.2,2.1-3.8,2.1-4.9c0-0.7-0.2-1.2-0.5-1.8
		c-0.3-0.5-0.8-0.9-1.5-1.2c-0.6-0.3-1.6-0.4-2.8-0.4V693z"/>
	<path d="M723.2,718.2V732c0,3,0.3,4.8,1,5.6c0.9,1,2.2,1.5,4,1.5h1.8v1.3h-20.3v-1.3h1.8c2,0,3.4-0.7,4.3-2
		c0.5-0.7,0.7-2.4,0.7-5.1v-30.7c0-3-0.3-4.8-0.9-5.6c-0.9-1-2.3-1.5-4.1-1.5h-1.8V693h17.4c4.2,0,7.6,0.4,10.1,1.3
		c2.5,0.9,4.5,2.4,6.2,4.4c1.7,2.1,2.5,4.5,2.5,7.4c0,3.9-1.3,7-3.8,9.5c-2.6,2.4-6.2,3.6-10.8,3.6c-1.1,0-2.4-0.1-3.7-0.2
		C726.1,718.8,724.7,718.5,723.2,718.2z M723.2,716.2c1.2,0.2,2.3,0.4,3.3,0.5c1,0.1,1.8,0.2,2.5,0.2c2.4,0,4.5-0.9,6.3-2.8
		c1.8-1.9,2.6-4.3,2.6-7.3c0-2.1-0.4-4-1.3-5.7c-0.8-1.8-2-3.1-3.6-4c-1.5-0.9-3.3-1.3-5.3-1.3c-1.2,0-2.7,0.2-4.6,0.7V716.2z"/>
	<path d="M774.6,691.9c6.2,0,11.5,2.3,16,7c4.5,4.7,6.8,10.5,6.8,17.5c0,7.2-2.3,13.2-6.8,18s-10.1,7.1-16.5,7.1
		c-6.5,0-12-2.3-16.5-7c-4.4-4.6-6.7-10.7-6.7-18c0-7.5,2.6-13.7,7.7-18.5C763,693.9,768.4,691.9,774.6,691.9z M773.9,694.4
		c-4.3,0-7.7,1.6-10.2,4.7c-3.2,3.9-4.8,9.7-4.8,17.2c0,7.8,1.7,13.7,5,17.9c2.5,3.2,5.9,4.8,10.1,4.8c4.5,0,8.1-1.7,11-5.2
		s4.4-9,4.4-16.5c0-8.1-1.6-14.2-4.8-18.2C782,696,778.4,694.4,773.9,694.4z"/>
	<path d="M803.8,702c1.4-3.2,3.1-5.7,5.1-7.4c2.1-1.7,4.6-2.6,7.7-2.6c3.8,0,6.7,1.2,8.8,3.7c1.5,1.8,2.3,3.8,2.3,5.9
		c0,3.5-2.2,7-6.5,10.7c2.9,1.1,5.1,2.8,6.6,4.9c1.5,2.1,2.2,4.6,2.2,7.5c0,4.1-1.3,7.7-3.9,10.7c-3.4,3.9-8.3,5.9-14.8,5.9
		c-3.2,0-5.4-0.4-6.5-1.2c-1.2-0.8-1.7-1.6-1.7-2.6c0-0.7,0.3-1.3,0.8-1.8s1.2-0.8,2-0.8c0.6,0,1.2,0.1,1.8,0.3
		c0.4,0.1,1.3,0.5,2.7,1.3c1.4,0.7,2.4,1.2,2.9,1.3c0.9,0.3,1.8,0.4,2.8,0.4c2.4,0,4.5-0.9,6.2-2.8c1.8-1.8,2.6-4,2.6-6.5
		c0-1.8-0.4-3.6-1.2-5.4c-0.6-1.3-1.3-2.3-2-3c-1-0.9-2.4-1.8-4.1-2.5c-1.8-0.8-3.5-1.1-5.4-1.1H811v-1.1c1.8-0.2,3.7-0.9,5.6-2
		c1.9-1.1,3.2-2.4,4-4s1.3-3.2,1.3-5.1c0-2.4-0.8-4.3-2.3-5.8c-1.5-1.5-3.4-2.2-5.6-2.2c-3.6,0-6.6,1.9-9.1,5.8L803.8,702z"/>
</g>
<g enable-background="new    ">
	<path d="M654.3,779l0.5,11.1h-1.3c-0.3-2-0.6-3.4-1.1-4.2c-0.7-1.4-1.7-2.4-2.9-3c-1.2-0.6-2.8-1-4.7-1h-6.7v36.3
		c0,2.9,0.3,4.7,0.9,5.5c0.9,1,2.3,1.5,4.1,1.5h1.6v1.3h-20.1v-1.3h1.7c2,0,3.4-0.6,4.3-1.8c0.5-0.7,0.8-2.5,0.8-5.1V782h-5.7
		c-2.2,0-3.8,0.2-4.7,0.5c-1.2,0.4-2.3,1.3-3.1,2.6c-0.9,1.3-1.4,3-1.5,5.1H615l0.6-11.1H654.3z"/>
	<path d="M671.6,781.6v18.8h10.4c2.7,0,4.5-0.4,5.4-1.2c1.2-1.1,1.9-3,2-5.7h1.3V810h-1.3c-0.3-2.3-0.7-3.8-1-4.4
		c-0.4-0.8-1.1-1.5-2.1-1.9c-1-0.5-2.4-0.7-4.4-0.7h-10.4v15.7c0,2.1,0.1,3.4,0.3,3.8c0.2,0.5,0.5,0.8,1,1.1
		c0.5,0.3,1.4,0.4,2.7,0.4h8.1c2.7,0,4.6-0.2,5.8-0.6c1.2-0.4,2.4-1.1,3.5-2.2c1.4-1.4,2.9-3.6,4.4-6.5h1.4l-4.1,11.9h-36.6v-1.3
		h1.7c1.1,0,2.2-0.3,3.2-0.8c0.7-0.4,1.3-0.9,1.5-1.7c0.3-0.7,0.4-2.3,0.4-4.6v-30.9c0-3-0.3-4.9-0.9-5.6c-0.8-0.9-2.2-1.4-4.2-1.4
		h-1.7V779h36.6l0.5,10.4h-1.4c-0.5-2.5-1-4.2-1.6-5.1s-1.5-1.6-2.6-2.1c-0.9-0.3-2.6-0.5-4.9-0.5H671.6z"/>
	<path d="M729.8,826.5l-18.4-40v31.7c0,2.9,0.3,4.7,0.9,5.5c0.9,1,2.2,1.5,4.1,1.5h1.7v1.3h-16.5v-1.3h1.7c2,0,3.4-0.6,4.3-1.8
		c0.5-0.7,0.8-2.5,0.8-5.1v-31c0-2.1-0.2-3.6-0.7-4.6c-0.3-0.7-0.9-1.2-1.8-1.7c-0.9-0.5-2.3-0.7-4.2-0.7V779h13.4l17.2,37.2
		l17-37.2h13.4v1.3h-1.6c-2,0-3.5,0.6-4.3,1.8c-0.5,0.7-0.8,2.5-0.8,5.1v31c0,2.9,0.3,4.7,1,5.5c0.9,1,2.2,1.5,4.1,1.5h1.6v1.3
		h-20.2v-1.3h1.7c2,0,3.5-0.6,4.3-1.8c0.5-0.7,0.8-2.5,0.8-5.1v-31.7l-18.3,40H729.8z"/>
	<path d="M779,804.3v13.8c0,3,0.3,4.8,1,5.6c0.9,1,2.2,1.5,4,1.5h1.8v1.3h-20.3v-1.3h1.8c2,0,3.4-0.7,4.3-2c0.5-0.7,0.7-2.4,0.7-5.1
		v-30.7c0-3-0.3-4.8-0.9-5.6c-0.9-1-2.3-1.5-4.1-1.5h-1.8V779h17.4c4.3,0,7.6,0.4,10.1,1.3c2.5,0.9,4.5,2.4,6.2,4.4s2.5,4.5,2.5,7.4
		c0,3.9-1.3,7-3.8,9.5c-2.6,2.4-6.2,3.6-10.8,3.6c-1.1,0-2.4-0.1-3.7-0.2S780.5,804.6,779,804.3z M779,802.3
		c1.2,0.2,2.3,0.4,3.3,0.5c1,0.1,1.8,0.2,2.5,0.2c2.4,0,4.5-0.9,6.3-2.8c1.8-1.9,2.6-4.3,2.6-7.3c0-2.1-0.4-4-1.3-5.7s-2-3.1-3.6-4
		c-1.5-0.9-3.3-1.3-5.3-1.3c-1.2,0-2.7,0.2-4.6,0.7V802.3z"/>
	<path d="M845.3,813.4l1.2,0.2l-4.1,12.9h-36.8v-1.3h1.8c2,0,3.4-0.7,4.3-2c0.5-0.7,0.7-2.5,0.7-5.2v-30.6c0-3-0.3-4.8-1-5.6
		c-0.9-1-2.3-1.5-4.1-1.5h-1.8V779h21.5v1.3c-2.5,0-4.3,0.2-5.3,0.7s-1.7,1.1-2.1,1.9c-0.4,0.7-0.6,2.5-0.6,5.4v29.8
		c0,1.9,0.2,3.3,0.6,4c0.3,0.5,0.7,0.9,1.3,1.1s2.4,0.4,5.5,0.4h3.5c3.6,0,6.2-0.3,7.7-0.8c1.5-0.5,2.8-1.5,4-2.9
		C842.8,818.5,844,816.3,845.3,813.4z"/>
</g>
<g enable-background="new    ">
	<path d="M880.7,810.6h-18.4l-3.2,7.5c-0.8,1.8-1.2,3.2-1.2,4.1c0,0.7,0.3,1.4,1,1.9c0.7,0.5,2.2,0.9,4.5,1.1v1.3h-15v-1.3
		c2-0.4,3.3-0.8,3.9-1.4c1.2-1.1,2.5-3.4,4-6.8l16.7-39.1h1.2l16.5,39.5c1.3,3.2,2.5,5.2,3.6,6.2c1.1,0.9,2.6,1.5,4.5,1.6v1.3h-18.7
		v-1.3c1.9-0.1,3.2-0.4,3.8-0.9c0.7-0.5,1-1.2,1-2c0-1-0.5-2.6-1.4-4.9L880.7,810.6z M879.8,808l-8.1-19.2l-8.3,19.2H879.8z"/>
</g>
<g enable-background="new    ">
	<path d="M933.4,779l0.5,11.1h-1.3c-0.3-2-0.6-3.4-1.1-4.2c-0.7-1.4-1.7-2.4-2.9-3c-1.2-0.6-2.8-1-4.7-1h-6.7v36.3
		c0,2.9,0.3,4.7,0.9,5.5c0.9,1,2.3,1.5,4.1,1.5h1.6v1.3h-20.1v-1.3h1.7c2,0,3.4-0.6,4.3-1.8c0.5-0.7,0.8-2.5,0.8-5.1V782h-5.7
		c-2.2,0-3.8,0.2-4.7,0.5c-1.2,0.4-2.3,1.3-3.1,2.6s-1.4,3-1.5,5.1h-1.3l0.6-11.1H933.4z"/>
	<path d="M950.7,781.6v18.8h10.4c2.7,0,4.5-0.4,5.4-1.2c1.2-1.1,1.9-3,2-5.7h1.3V810h-1.3c-0.3-2.3-0.7-3.8-1-4.4
		c-0.4-0.8-1.1-1.5-2.1-1.9c-1-0.5-2.4-0.7-4.4-0.7h-10.4v15.7c0,2.1,0.1,3.4,0.3,3.8s0.5,0.8,1,1.1c0.5,0.3,1.4,0.4,2.7,0.4h8.1
		c2.7,0,4.6-0.2,5.8-0.6c1.2-0.4,2.4-1.1,3.5-2.2c1.4-1.4,2.9-3.6,4.4-6.5h1.4l-4.1,11.9h-36.6v-1.3h1.7c1.1,0,2.2-0.3,3.2-0.8
		c0.7-0.4,1.3-0.9,1.5-1.7s0.4-2.3,0.4-4.6v-30.9c0-3-0.3-4.9-0.9-5.6c-0.8-0.9-2.2-1.4-4.2-1.4h-1.7V779h36.6l0.5,10.4H973
		c-0.5-2.5-1-4.2-1.6-5.1s-1.5-1.6-2.6-2.1c-0.9-0.3-2.6-0.5-4.9-0.5H950.7z"/>
	<path d="M1012.7,802.3c3.3,0.7,5.8,1.8,7.4,3.4c2.3,2.1,3.4,4.8,3.4,7.9c0,2.4-0.7,4.6-2.2,6.8c-1.5,2.2-3.5,3.7-6.1,4.7
		s-6.6,1.5-11.9,1.5h-22.4v-1.3h1.8c2,0,3.4-0.6,4.3-1.9c0.5-0.8,0.8-2.6,0.8-5.2v-30.7c0-2.9-0.3-4.8-1-5.6c-0.9-1-2.3-1.5-4.1-1.5
		h-1.8V779h20.5c3.8,0,6.9,0.3,9.2,0.8c3.5,0.8,6.2,2.3,8,4.5c1.8,2.1,2.8,4.6,2.8,7.4c0,2.4-0.7,4.5-2.2,6.4
		C1017.6,800,1015.5,801.4,1012.7,802.3z M994.3,800.4c0.9,0.2,1.9,0.3,3,0.4c1.1,0.1,2.3,0.1,3.7,0.1c3.4,0,6-0.4,7.7-1.1
		c1.7-0.7,3-1.9,3.9-3.4c0.9-1.5,1.4-3.2,1.4-5c0-2.8-1.1-5.1-3.4-7.1c-2.3-2-5.6-2.9-9.9-2.9c-2.3,0-4.4,0.3-6.3,0.8V800.4z
		 M994.3,823.1c2.7,0.6,5.4,0.9,8,0.9c4.2,0,7.4-1,9.7-2.9s3.3-4.3,3.3-7.1c0-1.8-0.5-3.6-1.5-5.3c-1-1.7-2.6-3-4.9-4
		s-5.1-1.5-8.4-1.5c-1.4,0-2.7,0-3.7,0.1c-1,0-1.9,0.1-2.5,0.2V823.1z"/>
	<path d="M1053.6,777.9c6.2,0,11.5,2.3,16,7c4.5,4.7,6.8,10.5,6.8,17.5c0,7.2-2.3,13.2-6.8,18c-4.6,4.8-10.1,7.1-16.5,7.1
		c-6.5,0-12-2.3-16.5-7s-6.7-10.7-6.7-18c0-7.5,2.6-13.7,7.7-18.5C1042.1,780,1047.4,777.9,1053.6,777.9z M1053,780.5
		c-4.3,0-7.7,1.6-10.2,4.7c-3.2,3.9-4.8,9.7-4.8,17.2c0,7.8,1.7,13.7,5,17.9c2.5,3.2,5.9,4.8,10.1,4.8c4.5,0,8.1-1.7,11-5.2
		c2.9-3.5,4.4-9,4.4-16.5c0-8.1-1.6-14.2-4.8-18.2C1061,782.1,1057.5,780.5,1053,780.5z"/>
	<path d="M1105.4,777.9c6.2,0,11.5,2.3,16,7c4.5,4.7,6.8,10.5,6.8,17.5c0,7.2-2.3,13.2-6.8,18c-4.6,4.8-10.1,7.1-16.5,7.1
		c-6.5,0-12-2.3-16.5-7s-6.7-10.7-6.7-18c0-7.5,2.6-13.7,7.7-18.5C1093.9,780,1099.2,777.9,1105.4,777.9z M1104.8,780.5
		c-4.3,0-7.7,1.6-10.2,4.7c-3.2,3.9-4.8,9.7-4.8,17.2c0,7.8,1.7,13.7,5,17.9c2.5,3.2,5.9,4.8,10.1,4.8c4.5,0,8.1-1.7,11-5.2
		c2.9-3.5,4.4-9,4.4-16.5c0-8.1-1.6-14.2-4.8-18.2C1112.8,782.1,1109.3,780.5,1104.8,780.5z"/>
	<path d="M1172.5,779l0.5,11.1h-1.3c-0.3-2-0.6-3.4-1.1-4.2c-0.7-1.4-1.7-2.4-2.9-3c-1.2-0.6-2.8-1-4.7-1h-6.7v36.3
		c0,2.9,0.3,4.7,0.9,5.5c0.9,1,2.3,1.5,4.1,1.5h1.6v1.3h-20.1v-1.3h1.7c2,0,3.4-0.6,4.3-1.8c0.5-0.7,0.8-2.5,0.8-5.1V782h-5.7
		c-2.2,0-3.8,0.2-4.7,0.5c-1.2,0.4-2.3,1.3-3.1,2.6s-1.4,3-1.5,5.1h-1.3l0.6-11.1H1172.5z"/>
	<path d="M1207.7,777.9v16.4h-1.3c-0.4-3.2-1.2-5.7-2.3-7.5c-1.1-1.9-2.6-3.4-4.6-4.4c-2-1.1-4.1-1.6-6.2-1.6c-2.4,0-4.4,0.7-6,2.2
		c-1.6,1.5-2.4,3.2-2.4,5.1c0,1.4,0.5,2.8,1.5,4c1.4,1.8,4.9,4.1,10.3,7c4.4,2.4,7.5,4.2,9.1,5.5s2.9,2.8,3.7,4.5
		c0.9,1.7,1.3,3.5,1.3,5.4c0,3.6-1.4,6.7-4.2,9.3c-2.8,2.6-6.4,3.9-10.8,3.9c-1.4,0-2.7-0.1-3.9-0.3c-0.7-0.1-2.2-0.5-4.5-1.3
		c-2.3-0.7-3.7-1.1-4.3-1.1c-0.6,0-1,0.2-1.4,0.5c-0.3,0.4-0.6,1.1-0.8,2.2h-1.3v-16.3h1.3c0.6,3.4,1.4,6,2.5,7.7
		c1,1.7,2.6,3.1,4.7,4.2c2.1,1.1,4.4,1.7,7,1.7c2.9,0,5.2-0.8,6.9-2.3c1.7-1.5,2.5-3.4,2.5-5.5c0-1.2-0.3-2.3-1-3.5
		c-0.6-1.2-1.6-2.3-3-3.3c-0.9-0.7-3.4-2.2-7.5-4.5s-7-4.1-8.7-5.4c-1.7-1.4-3-2.8-3.9-4.5c-0.9-1.6-1.3-3.4-1.3-5.4
		c0-3.4,1.3-6.3,3.9-8.8c2.6-2.5,5.9-3.7,10-3.7c2.5,0,5.2,0.6,8,1.9c1.3,0.6,2.2,0.9,2.8,0.9c0.6,0,1.1-0.2,1.5-0.5
		c0.4-0.4,0.7-1.1,0.9-2.2H1207.7z"/>
	<path d="M1256.2,779l0.5,11.1h-1.3c-0.3-2-0.6-3.4-1.1-4.2c-0.7-1.4-1.7-2.4-2.9-3c-1.2-0.6-2.8-1-4.7-1h-6.7v36.3
		c0,2.9,0.3,4.7,0.9,5.5c0.9,1,2.3,1.5,4.1,1.5h1.6v1.3h-20.1v-1.3h1.7c2,0,3.4-0.6,4.3-1.8c0.5-0.7,0.8-2.5,0.8-5.1V782h-5.7
		c-2.2,0-3.8,0.2-4.7,0.5c-1.2,0.4-2.3,1.3-3.1,2.6s-1.4,3-1.5,5.1h-1.3l0.6-11.1H1256.2z"/>
	<path d="M1307,826.5h-12.7l-16.1-22.2c-1.2,0-2.2,0.1-2.9,0.1c-0.3,0-0.6,0-1,0c-0.3,0-0.7,0-1.1-0.1v13.8c0,3,0.3,4.8,1,5.6
		c0.9,1,2.2,1.5,4,1.5h1.9v1.3h-20.3v-1.3h1.8c2,0,3.4-0.7,4.3-2c0.5-0.7,0.7-2.4,0.7-5.1v-30.7c0-3-0.3-4.8-1-5.6
		c-0.9-1-2.3-1.5-4.1-1.5h-1.8V779h17.3c5,0,8.8,0.4,11.2,1.1s4.4,2.1,6.1,4.1c1.7,2,2.5,4.3,2.5,7.1c0,2.9-1,5.5-2.9,7.6
		c-1.9,2.1-4.9,3.7-8.8,4.6l9.8,13.6c2.2,3.1,4.2,5.2,5.8,6.2c1.6,1,3.7,1.7,6.3,2V826.5z M1273.3,802.1c0.4,0,0.8,0,1.2,0
		c0.3,0,0.6,0,0.8,0c4.5,0,7.9-1,10.2-2.9c2.3-2,3.4-4.5,3.4-7.5c0-3-0.9-5.4-2.8-7.2s-4.3-2.8-7.4-2.8c-1.4,0-3.2,0.2-5.5,0.7
		V802.1z"/>
	<path d="M1339.2,810.6h-18.4l-3.2,7.5c-0.8,1.8-1.2,3.2-1.2,4.1c0,0.7,0.3,1.4,1,1.9c0.7,0.5,2.2,0.9,4.5,1.1v1.3h-15v-1.3
		c2-0.4,3.3-0.8,3.9-1.4c1.2-1.1,2.5-3.4,4-6.8l16.7-39.1h1.2l16.5,39.5c1.3,3.2,2.5,5.2,3.6,6.2c1.1,0.9,2.6,1.5,4.5,1.6v1.3h-18.7
		v-1.3c1.9-0.1,3.2-0.4,3.8-0.9c0.7-0.5,1-1.2,1-2c0-1-0.5-2.6-1.4-4.9L1339.2,810.6z M1338.2,808l-8.1-19.2l-8.3,19.2H1338.2z"/>
</g>
<g enable-background="new    ">
	<path d="M1372.9,804.3v13.8c0,3,0.3,4.8,1,5.6c0.9,1,2.2,1.5,4,1.5h1.8v1.3h-20.3v-1.3h1.8c2,0,3.4-0.7,4.3-2
		c0.5-0.7,0.7-2.4,0.7-5.1v-30.7c0-3-0.3-4.8-0.9-5.6c-0.9-1-2.3-1.5-4.1-1.5h-1.8V779h17.4c4.3,0,7.6,0.4,10.1,1.3
		c2.5,0.9,4.5,2.4,6.2,4.4s2.5,4.5,2.5,7.4c0,3.9-1.3,7-3.8,9.5c-2.6,2.4-6.2,3.6-10.8,3.6c-1.1,0-2.4-0.1-3.7-0.2
		S1374.4,804.6,1372.9,804.3z M1372.9,802.3c1.2,0.2,2.3,0.4,3.3,0.5c1,0.1,1.8,0.2,2.5,0.2c2.4,0,4.5-0.9,6.3-2.8
		c1.8-1.9,2.6-4.3,2.6-7.3c0-2.1-0.4-4-1.3-5.7s-2-3.1-3.6-4c-1.5-0.9-3.3-1.3-5.3-1.3c-1.2,0-2.7,0.2-4.6,0.7V802.3z"/>
</g>
</svg>
